<?xml version="1.0" encoding="UTF-8" standalone="no"?>
<!DOCTYPE svg PUBLIC "-//W3C//DTD SVG 1.1//EN"
 "http://www.w3.org/Graphics/SVG/1.1/DTD/svg11.dtd">
<!-- Generated by graphviz version 2.43.0 (0)
 -->
<!-- Title: G Pages: 1 -->
<svg width="3350pt" height="516pt"
 viewBox="0.00 0.00 2512.50 387.00" xmlns="http://www.w3.org/2000/svg" xmlns:xlink="http://www.w3.org/1999/xlink">
<g id="graph0" class="graph" transform="scale(0.75 0.75) rotate(0) translate(4 383)">
<title>G</title>
<polygon fill="white" stroke="transparent" points="-4,4 -4,-383 2508.5,-383 2508.5,4 -4,4"/>
<!-- 140407789044976 -->
<g id="node1" class="node">
<title>140407789044976</title>
<polygon fill="none" stroke="black" points="52.5,-332.5 52.5,-378.5 518.5,-378.5 518.5,-332.5 52.5,-332.5"/>
<text text-anchor="middle" x="142" y="-351.8" font-family="Times,serif" font-size="14.00">input_msg: InputLayer</text>
<polyline fill="none" stroke="black" points="231.5,-332.5 231.5,-378.5 "/>
<text text-anchor="middle" x="258.5" y="-351.8" font-family="Times,serif" font-size="14.00">uint8</text>
<polyline fill="none" stroke="black" points="285.5,-332.5 285.5,-378.5 "/>
<text text-anchor="middle" x="319.5" y="-363.3" font-family="Times,serif" font-size="14.00">input:</text>
<polyline fill="none" stroke="black" points="285.5,-355.5 353.5,-355.5 "/>
<text text-anchor="middle" x="319.5" y="-340.3" font-family="Times,serif" font-size="14.00">output:</text>
<polyline fill="none" stroke="black" points="353.5,-332.5 353.5,-378.5 "/>
<text text-anchor="middle" x="436" y="-363.3" font-family="Times,serif" font-size="14.00">[(None, 224, 224, 3)]</text>
<polyline fill="none" stroke="black" points="353.5,-355.5 518.5,-355.5 "/>
<text text-anchor="middle" x="436" y="-340.3" font-family="Times,serif" font-size="14.00">[(None, 224, 224, 3)]</text>
</g>
<!-- 140398267683216 -->
<g id="node2" class="node">
<title>140398267683216</title>
<polygon fill="none" stroke="black" points="17,-249.5 17,-295.5 554,-295.5 554,-249.5 17,-249.5"/>
<text text-anchor="middle" x="117" y="-268.8" font-family="Times,serif" font-size="14.00">efficientnetb0: Functional</text>
<polyline fill="none" stroke="black" points="217,-249.5 217,-295.5 "/>
<text text-anchor="middle" x="250" y="-268.8" font-family="Times,serif" font-size="14.00">float32</text>
<polyline fill="none" stroke="black" points="283,-249.5 283,-295.5 "/>
<text text-anchor="middle" x="317" y="-280.3" font-family="Times,serif" font-size="14.00">input:</text>
<polyline fill="none" stroke="black" points="283,-272.5 351,-272.5 "/>
<text text-anchor="middle" x="317" y="-257.3" font-family="Times,serif" font-size="14.00">output:</text>
<polyline fill="none" stroke="black" points="351,-249.5 351,-295.5 "/>
<text text-anchor="middle" x="452.5" y="-280.3" font-family="Times,serif" font-size="14.00">(None, None, None, 3)</text>
<polyline fill="none" stroke="black" points="351,-272.5 554,-272.5 "/>
<text text-anchor="middle" x="452.5" y="-257.3" font-family="Times,serif" font-size="14.00">(None, None, None, 1280)</text>
</g>
<!-- 140407789044976&#45;&gt;140398267683216 -->
<g id="edge1" class="edge">
<title>140407789044976&#45;&gt;140398267683216</title>
<path fill="none" stroke="black" d="M285.5,-332.37C285.5,-324.15 285.5,-314.66 285.5,-305.73"/>
<polygon fill="black" stroke="black" points="289,-305.61 285.5,-295.61 282,-305.61 289,-305.61"/>
</g>
<!-- 140398373030640 -->
<g id="node5" class="node">
<title>140398373030640</title>
<polygon fill="none" stroke="black" points="0,-166.5 0,-212.5 571,-212.5 571,-166.5 0,-166.5"/>
<text text-anchor="middle" x="145.5" y="-185.8" font-family="Times,serif" font-size="14.00">feature_msg: GlobalAveragePooling2D</text>
<polyline fill="none" stroke="black" points="291,-166.5 291,-212.5 "/>
<text text-anchor="middle" x="324" y="-185.8" font-family="Times,serif" font-size="14.00">float32</text>
<polyline fill="none" stroke="black" points="357,-166.5 357,-212.5 "/>
<text text-anchor="middle" x="391" y="-197.3" font-family="Times,serif" font-size="14.00">input:</text>
<polyline fill="none" stroke="black" points="357,-189.5 425,-189.5 "/>
<text text-anchor="middle" x="391" y="-174.3" font-family="Times,serif" font-size="14.00">output:</text>
<polyline fill="none" stroke="black" points="425,-166.5 425,-212.5 "/>
<text text-anchor="middle" x="498" y="-197.3" font-family="Times,serif" font-size="14.00">(None, 7, 7, 1280)</text>
<polyline fill="none" stroke="black" points="425,-189.5 571,-189.5 "/>
<text text-anchor="middle" x="498" y="-174.3" font-family="Times,serif" font-size="14.00">(None, 1280)</text>
</g>
<!-- 140398267683216&#45;&gt;140398373030640 -->
<g id="edge2" class="edge">
<title>140398267683216&#45;&gt;140398373030640</title>
<path fill="none" stroke="black" d="M285.5,-249.37C285.5,-241.15 285.5,-231.66 285.5,-222.73"/>
<polygon fill="black" stroke="black" points="289,-222.61 285.5,-212.61 282,-222.61 289,-222.61"/>
</g>
<!-- 140398265086160 -->
<g id="node3" class="node">
<title>140398265086160</title>
<polygon fill="none" stroke="black" points="1054,-249.5 1054,-295.5 1475,-295.5 1475,-249.5 1054,-249.5"/>
<text text-anchor="middle" x="1151" y="-268.8" font-family="Times,serif" font-size="14.00">input_month: InputLayer</text>
<polyline fill="none" stroke="black" points="1248,-249.5 1248,-295.5 "/>
<text text-anchor="middle" x="1281" y="-268.8" font-family="Times,serif" font-size="14.00">float32</text>
<polyline fill="none" stroke="black" points="1314,-249.5 1314,-295.5 "/>
<text text-anchor="middle" x="1348" y="-280.3" font-family="Times,serif" font-size="14.00">input:</text>
<polyline fill="none" stroke="black" points="1314,-272.5 1382,-272.5 "/>
<text text-anchor="middle" x="1348" y="-257.3" font-family="Times,serif" font-size="14.00">output:</text>
<polyline fill="none" stroke="black" points="1382,-249.5 1382,-295.5 "/>
<text text-anchor="middle" x="1428.5" y="-280.3" font-family="Times,serif" font-size="14.00">[(None, 1)]</text>
<polyline fill="none" stroke="black" points="1382,-272.5 1475,-272.5 "/>
<text text-anchor="middle" x="1428.5" y="-257.3" font-family="Times,serif" font-size="14.00">[(None, 1)]</text>
</g>
<!-- 140407789090752 -->
<g id="node7" class="node">
<title>140407789090752</title>
<polygon fill="none" stroke="black" points="1014.5,-166.5 1014.5,-212.5 1514.5,-212.5 1514.5,-166.5 1014.5,-166.5"/>
<text text-anchor="middle" x="1156" y="-185.8" font-family="Times,serif" font-size="14.00">feature_month_sincos: SinCosEncode</text>
<polyline fill="none" stroke="black" points="1297.5,-166.5 1297.5,-212.5 "/>
<text text-anchor="middle" x="1330.5" y="-185.8" font-family="Times,serif" font-size="14.00">float32</text>
<polyline fill="none" stroke="black" points="1363.5,-166.5 1363.5,-212.5 "/>
<text text-anchor="middle" x="1397.5" y="-197.3" font-family="Times,serif" font-size="14.00">input:</text>
<polyline fill="none" stroke="black" points="1363.5,-189.5 1431.5,-189.5 "/>
<text text-anchor="middle" x="1397.5" y="-174.3" font-family="Times,serif" font-size="14.00">output:</text>
<polyline fill="none" stroke="black" points="1431.5,-166.5 1431.5,-212.5 "/>
<text text-anchor="middle" x="1473" y="-197.3" font-family="Times,serif" font-size="14.00">(None, 1)</text>
<polyline fill="none" stroke="black" points="1431.5,-189.5 1514.5,-189.5 "/>
<text text-anchor="middle" x="1473" y="-174.3" font-family="Times,serif" font-size="14.00">(None, 2)</text>
</g>
<!-- 140398265086160&#45;&gt;140407789090752 -->
<g id="edge3" class="edge">
<title>140398265086160&#45;&gt;140407789090752</title>
<path fill="none" stroke="black" d="M1264.5,-249.37C1264.5,-241.15 1264.5,-231.66 1264.5,-222.73"/>
<polygon fill="black" stroke="black" points="1268,-222.61 1264.5,-212.61 1261,-222.61 1268,-222.61"/>
</g>
<!-- 140398264736112 -->
<g id="node4" class="node">
<title>140398264736112</title>
<polygon fill="none" stroke="black" points="2022,-249.5 2022,-295.5 2465,-295.5 2465,-249.5 2022,-249.5"/>
<text text-anchor="middle" x="2130" y="-268.8" font-family="Times,serif" font-size="14.00">input_longitude: InputLayer</text>
<polyline fill="none" stroke="black" points="2238,-249.5 2238,-295.5 "/>
<text text-anchor="middle" x="2271" y="-268.8" font-family="Times,serif" font-size="14.00">float32</text>
<polyline fill="none" stroke="black" points="2304,-249.5 2304,-295.5 "/>
<text text-anchor="middle" x="2338" y="-280.3" font-family="Times,serif" font-size="14.00">input:</text>
<polyline fill="none" stroke="black" points="2304,-272.5 2372,-272.5 "/>
<text text-anchor="middle" x="2338" y="-257.3" font-family="Times,serif" font-size="14.00">output:</text>
<polyline fill="none" stroke="black" points="2372,-249.5 2372,-295.5 "/>
<text text-anchor="middle" x="2418.5" y="-280.3" font-family="Times,serif" font-size="14.00">[(None, 1)]</text>
<polyline fill="none" stroke="black" points="2372,-272.5 2465,-272.5 "/>
<text text-anchor="middle" x="2418.5" y="-257.3" font-family="Times,serif" font-size="14.00">[(None, 1)]</text>
</g>
<!-- 140398264733808 -->
<g id="node9" class="node">
<title>140398264733808</title>
<polygon fill="none" stroke="black" points="1982.5,-166.5 1982.5,-212.5 2504.5,-212.5 2504.5,-166.5 1982.5,-166.5"/>
<text text-anchor="middle" x="2135" y="-185.8" font-family="Times,serif" font-size="14.00">feature_longitude_sincos: SinCosEncode</text>
<polyline fill="none" stroke="black" points="2287.5,-166.5 2287.5,-212.5 "/>
<text text-anchor="middle" x="2320.5" y="-185.8" font-family="Times,serif" font-size="14.00">float32</text>
<polyline fill="none" stroke="black" points="2353.5,-166.5 2353.5,-212.5 "/>
<text text-anchor="middle" x="2387.5" y="-197.3" font-family="Times,serif" font-size="14.00">input:</text>
<polyline fill="none" stroke="black" points="2353.5,-189.5 2421.5,-189.5 "/>
<text text-anchor="middle" x="2387.5" y="-174.3" font-family="Times,serif" font-size="14.00">output:</text>
<polyline fill="none" stroke="black" points="2421.5,-166.5 2421.5,-212.5 "/>
<text text-anchor="middle" x="2463" y="-197.3" font-family="Times,serif" font-size="14.00">(None, 1)</text>
<polyline fill="none" stroke="black" points="2421.5,-189.5 2504.5,-189.5 "/>
<text text-anchor="middle" x="2463" y="-174.3" font-family="Times,serif" font-size="14.00">(None, 2)</text>
</g>
<!-- 140398264736112&#45;&gt;140398264733808 -->
<g id="edge4" class="edge">
<title>140398264736112&#45;&gt;140398264733808</title>
<path fill="none" stroke="black" d="M2243.5,-249.37C2243.5,-241.15 2243.5,-231.66 2243.5,-222.73"/>
<polygon fill="black" stroke="black" points="2247,-222.61 2243.5,-212.61 2240,-222.61 2247,-222.61"/>
</g>
<!-- 140398265061136 -->
<g id="node10" class="node">
<title>140398265061136</title>
<polygon fill="none" stroke="black" points="900.5,-83.5 900.5,-129.5 1628.5,-129.5 1628.5,-83.5 900.5,-83.5"/>
<text text-anchor="middle" x="987.5" y="-102.8" font-family="Times,serif" font-size="14.00">features: Concatenate</text>
<polyline fill="none" stroke="black" points="1074.5,-83.5 1074.5,-129.5 "/>
<text text-anchor="middle" x="1107.5" y="-102.8" font-family="Times,serif" font-size="14.00">float32</text>
<polyline fill="none" stroke="black" points="1140.5,-83.5 1140.5,-129.5 "/>
<text text-anchor="middle" x="1174.5" y="-114.3" font-family="Times,serif" font-size="14.00">input:</text>
<polyline fill="none" stroke="black" points="1140.5,-106.5 1208.5,-106.5 "/>
<text text-anchor="middle" x="1174.5" y="-91.3" font-family="Times,serif" font-size="14.00">output:</text>
<polyline fill="none" stroke="black" points="1208.5,-83.5 1208.5,-129.5 "/>
<text text-anchor="middle" x="1418.5" y="-114.3" font-family="Times,serif" font-size="14.00">[(None, 1280), (None, 1), (None, 2), (None, 1), (None, 2)]</text>
<polyline fill="none" stroke="black" points="1208.5,-106.5 1628.5,-106.5 "/>
<text text-anchor="middle" x="1418.5" y="-91.3" font-family="Times,serif" font-size="14.00">(None, 1286)</text>
</g>
<!-- 140398373030640&#45;&gt;140398265061136 -->
<g id="edge5" class="edge">
<title>140398373030640&#45;&gt;140398265061136</title>
<path fill="none" stroke="black" d="M551.72,-166.47C687.06,-155.28 851.37,-141.68 988.12,-130.37"/>
<polygon fill="black" stroke="black" points="988.65,-133.83 998.33,-129.52 988.08,-126.86 988.65,-133.83"/>
</g>
<!-- 140398268057056 -->
<g id="node6" class="node">
<title>140398268057056</title>
<polygon fill="none" stroke="black" points="589,-166.5 589,-212.5 996,-212.5 996,-166.5 589,-166.5"/>
<text text-anchor="middle" x="679" y="-185.8" font-family="Times,serif" font-size="14.00">input_year: InputLayer</text>
<polyline fill="none" stroke="black" points="769,-166.5 769,-212.5 "/>
<text text-anchor="middle" x="802" y="-185.8" font-family="Times,serif" font-size="14.00">float32</text>
<polyline fill="none" stroke="black" points="835,-166.5 835,-212.5 "/>
<text text-anchor="middle" x="869" y="-197.3" font-family="Times,serif" font-size="14.00">input:</text>
<polyline fill="none" stroke="black" points="835,-189.5 903,-189.5 "/>
<text text-anchor="middle" x="869" y="-174.3" font-family="Times,serif" font-size="14.00">output:</text>
<polyline fill="none" stroke="black" points="903,-166.5 903,-212.5 "/>
<text text-anchor="middle" x="949.5" y="-197.3" font-family="Times,serif" font-size="14.00">[(None, 1)]</text>
<polyline fill="none" stroke="black" points="903,-189.5 996,-189.5 "/>
<text text-anchor="middle" x="949.5" y="-174.3" font-family="Times,serif" font-size="14.00">[(None, 1)]</text>
</g>
<!-- 140398268057056&#45;&gt;140398265061136 -->
<g id="edge6" class="edge">
<title>140398268057056&#45;&gt;140398265061136</title>
<path fill="none" stroke="black" d="M920.85,-166.47C984.47,-155.56 1061.37,-142.36 1126.27,-131.22"/>
<polygon fill="black" stroke="black" points="1126.91,-134.66 1136.17,-129.52 1125.73,-127.76 1126.91,-134.66"/>
</g>
<!-- 140407789090752&#45;&gt;140398265061136 -->
<g id="edge7" class="edge">
<title>140407789090752&#45;&gt;140398265061136</title>
<path fill="none" stroke="black" d="M1264.5,-166.37C1264.5,-158.15 1264.5,-148.66 1264.5,-139.73"/>
<polygon fill="black" stroke="black" points="1268,-139.61 1264.5,-129.61 1261,-139.61 1268,-139.61"/>
</g>
<!-- 140398265060272 -->
<g id="node8" class="node">
<title>140398265060272</title>
<polygon fill="none" stroke="black" points="1533,-166.5 1533,-212.5 1964,-212.5 1964,-166.5 1533,-166.5"/>
<text text-anchor="middle" x="1635" y="-185.8" font-family="Times,serif" font-size="14.00">input_latitude: InputLayer</text>
<polyline fill="none" stroke="black" points="1737,-166.5 1737,-212.5 "/>
<text text-anchor="middle" x="1770" y="-185.8" font-family="Times,serif" font-size="14.00">float32</text>
<polyline fill="none" stroke="black" points="1803,-166.5 1803,-212.5 "/>
<text text-anchor="middle" x="1837" y="-197.3" font-family="Times,serif" font-size="14.00">input:</text>
<polyline fill="none" stroke="black" points="1803,-189.5 1871,-189.5 "/>
<text text-anchor="middle" x="1837" y="-174.3" font-family="Times,serif" font-size="14.00">output:</text>
<polyline fill="none" stroke="black" points="1871,-166.5 1871,-212.5 "/>
<text text-anchor="middle" x="1917.5" y="-197.3" font-family="Times,serif" font-size="14.00">[(None, 1)]</text>
<polyline fill="none" stroke="black" points="1871,-189.5 1964,-189.5 "/>
<text text-anchor="middle" x="1917.5" y="-174.3" font-family="Times,serif" font-size="14.00">[(None, 1)]</text>
</g>
<!-- 140398265060272&#45;&gt;140398265061136 -->
<g id="edge8" class="edge">
<title>140398265060272&#45;&gt;140398265061136</title>
<path fill="none" stroke="black" d="M1616.88,-166.47C1551.65,-155.56 1472.8,-142.36 1406.24,-131.22"/>
<polygon fill="black" stroke="black" points="1406.53,-127.72 1396.09,-129.52 1405.37,-134.62 1406.53,-127.72"/>
</g>
<!-- 140398264733808&#45;&gt;140398265061136 -->
<g id="edge9" class="edge">
<title>140398264733808&#45;&gt;140398265061136</title>
<path fill="none" stroke="black" d="M1982.34,-166.73C1979.38,-166.49 1976.43,-166.24 1973.5,-166 1831.35,-154.21 1673.16,-141.15 1542.33,-130.37"/>
<polygon fill="black" stroke="black" points="1542.41,-126.87 1532.16,-129.53 1541.84,-133.84 1542.41,-126.87"/>
</g>
<!-- 140398264736592 -->
<g id="node11" class="node">
<title>140398264736592</title>
<polygon fill="none" stroke="black" points="1055,-0.5 1055,-46.5 1474,-46.5 1474,-0.5 1055,-0.5"/>
<text text-anchor="middle" x="1142.5" y="-19.8" font-family="Times,serif" font-size="14.00">output_classes: Dense</text>
<polyline fill="none" stroke="black" points="1230,-0.5 1230,-46.5 "/>
<text text-anchor="middle" x="1263" y="-19.8" font-family="Times,serif" font-size="14.00">float32</text>
<polyline fill="none" stroke="black" points="1296,-0.5 1296,-46.5 "/>
<text text-anchor="middle" x="1330" y="-31.3" font-family="Times,serif" font-size="14.00">input:</text>
<polyline fill="none" stroke="black" points="1296,-23.5 1364,-23.5 "/>
<text text-anchor="middle" x="1330" y="-8.3" font-family="Times,serif" font-size="14.00">output:</text>
<polyline fill="none" stroke="black" points="1364,-0.5 1364,-46.5 "/>
<text text-anchor="middle" x="1419" y="-31.3" font-family="Times,serif" font-size="14.00">(None, 1286)</text>
<polyline fill="none" stroke="black" points="1364,-23.5 1474,-23.5 "/>
<text text-anchor="middle" x="1419" y="-8.3" font-family="Times,serif" font-size="14.00">(None, 100)</text>
</g>
<!-- 140398265061136&#45;&gt;140398264736592 -->
<g id="edge10" class="edge">
<title>140398265061136&#45;&gt;140398264736592</title>
<path fill="none" stroke="black" d="M1264.5,-83.37C1264.5,-75.15 1264.5,-65.66 1264.5,-56.73"/>
<polygon fill="black" stroke="black" points="1268,-56.61 1264.5,-46.61 1261,-56.61 1268,-56.61"/>
</g>
</g>
</svg>
